<svg width="158" height="44" viewBox="0 0 158 44" fill="none" xmlns="http://www.w3.org/2000/svg">
<rect x="1" y="1" width="156" height="42" rx="9" stroke="#E06733" stroke-width="2"/>
<path d="M29.2216 28V16.3636H30.6307V26.75H36.0398V28H29.2216ZM38.2216 28V16.3636H45.2443V17.6136H39.6307V21.5455H44.8807V22.7955H39.6307V26.75H45.3352V28H38.2216ZM48.2614 28H46.7841L51.0568 16.3636H52.5114L56.7841 28H55.3068L51.8295 18.2045H51.7386L48.2614 28ZM48.8068 23.4545H54.7614V24.7045H48.8068V23.4545ZM58.5966 28V16.3636H62.5284C63.4375 16.3636 64.1837 16.5189 64.767 16.8295C65.3504 17.1364 65.7822 17.5587 66.0625 18.0966C66.3428 18.6345 66.483 19.2462 66.483 19.9318C66.483 20.6174 66.3428 21.2254 66.0625 21.7557C65.7822 22.286 65.3523 22.7027 64.7727 23.0057C64.1932 23.3049 63.4527 23.4545 62.5511 23.4545H59.3693V22.1818H62.5057C63.1269 22.1818 63.6269 22.0909 64.0057 21.9091C64.3883 21.7273 64.6648 21.4697 64.8352 21.1364C65.0095 20.7992 65.0966 20.3977 65.0966 19.9318C65.0966 19.4659 65.0095 19.0587 64.8352 18.7102C64.661 18.3617 64.3826 18.0928 64 17.9034C63.6174 17.7102 63.1117 17.6136 62.483 17.6136H60.0057V28H58.5966ZM64.0739 22.7727L66.9375 28H65.3011L62.483 22.7727H64.0739ZM78.0582 16.3636V28H76.6946L70.3537 18.8636H70.2401V28H68.831V16.3636H70.1946L76.5582 25.5227H76.6719V16.3636H78.0582ZM85.3778 16.3636H87.0597L91.0142 26.0227H91.1506L95.1051 16.3636H96.7869V28H95.4688V19.1591H95.3551L91.7188 28H90.446L86.8097 19.1591H86.696V28H85.3778V16.3636ZM109.43 22.1818C109.43 23.4091 109.209 24.4697 108.766 25.3636C108.322 26.2576 107.714 26.947 106.942 27.4318C106.169 27.9167 105.286 28.1591 104.294 28.1591C103.302 28.1591 102.419 27.9167 101.646 27.4318C100.874 26.947 100.266 26.2576 99.8224 25.3636C99.3793 24.4697 99.1577 23.4091 99.1577 22.1818C99.1577 20.9545 99.3793 19.8939 99.8224 19C100.266 18.1061 100.874 17.4167 101.646 16.9318C102.419 16.447 103.302 16.2045 104.294 16.2045C105.286 16.2045 106.169 16.447 106.942 16.9318C107.714 17.4167 108.322 18.1061 108.766 19C109.209 19.8939 109.43 20.9545 109.43 22.1818ZM108.067 22.1818C108.067 21.1742 107.898 20.3239 107.561 19.6307C107.228 18.9375 106.775 18.4129 106.203 18.0568C105.635 17.7008 104.999 17.5227 104.294 17.5227C103.589 17.5227 102.951 17.7008 102.379 18.0568C101.811 18.4129 101.358 18.9375 101.021 19.6307C100.688 20.3239 100.521 21.1742 100.521 22.1818C100.521 23.1894 100.688 24.0398 101.021 24.733C101.358 25.4261 101.811 25.9508 102.379 26.3068C102.951 26.6629 103.589 26.8409 104.294 26.8409C104.999 26.8409 105.635 26.6629 106.203 26.3068C106.775 25.9508 107.228 25.4261 107.561 24.733C107.898 24.0398 108.067 23.1894 108.067 22.1818ZM111.8 28V16.3636H115.732C116.641 16.3636 117.387 16.5189 117.97 16.8295C118.554 17.1364 118.985 17.5587 119.266 18.0966C119.546 18.6345 119.686 19.2462 119.686 19.9318C119.686 20.6174 119.546 21.2254 119.266 21.7557C118.985 22.286 118.555 22.7027 117.976 23.0057C117.396 23.3049 116.656 23.4545 115.754 23.4545H112.572V22.1818H115.709C116.33 22.1818 116.83 22.0909 117.209 21.9091C117.591 21.7273 117.868 21.4697 118.038 21.1364C118.213 20.7992 118.3 20.3977 118.3 19.9318C118.3 19.4659 118.213 19.0587 118.038 18.7102C117.864 18.3617 117.586 18.0928 117.203 17.9034C116.821 17.7102 116.315 17.6136 115.686 17.6136H113.209V28H111.8ZM117.277 22.7727L120.141 28H118.504L115.686 22.7727H117.277ZM122.034 28V16.3636H129.057V17.6136H123.443V21.5455H128.693V22.7955H123.443V26.75H129.148V28H122.034Z" fill="black"/>
</svg>
